<svg width="540" height="394" xmlns="http://www.w3.org/2000/svg"><g fill-rule="nonzero" fill="none" stroke-linecap="round" stroke-linejoin="round"><path d="M121.016 203.994L8.68 236.758a6 6 0 0 1-7.68-5.76V73.501a6 6 0 0 1 4.32-5.76l228-66.5a6 6 0 0 1 7.68 5.76v97.037" stroke-opacity=".2" stroke="#4F535C"/><path d="M241.014 273.995L128.68 306.758a6 6 0 0 1-7.68-5.76V143.501a6 6 0 0 1 4.32-5.76l228-66.5a6 6 0 0 1 7.68 5.76v98.403" stroke-opacity=".4" stroke="#4F535C"/><path d="M361.509 344.85L248.68 377.758a6 6 0 0 1-7.68-5.76V214.501a6 6 0 0 1 4.32-5.76l228-66.5a6 6 0 0 1 7.68 5.76v97.57" stroke-opacity=".6" stroke="#4F535C"/><path d="M481 392.988v-38.487a6 6 0 0 1 4.32-5.76l53.69-15.66" stroke="#F4F6F8"/><path d="M361 393.01V284.5a6 6 0 0 1 4.32-5.76l173.746-50.674" stroke-opacity=".8" stroke="#4F535C"/></g></svg>