<svg width="670" height="517" xmlns="http://www.w3.org/2000/svg"><g fill="#1C1E24" fill-rule="nonzero"><path d="M4.46 67.22A5.5 5.5 0 0 0 .5 72.5v157.498a5.5 5.5 0 0 0 7.04 5.28l228-66.499a5.5 5.5 0 0 0 3.96-5.28V6.002a5.5 5.5 0 0 0-7.04-5.28L4.46 67.22z" stroke-opacity=".2" stroke="#4F535C"/><path d="M124.46 137.22a5.5 5.5 0 0 0-3.96 5.28v157.498a5.5 5.5 0 0 0 7.04 5.28l228-66.499a5.5 5.5 0 0 0 3.96-5.28V76.002a5.5 5.5 0 0 0-7.04-5.28l-228 66.499z" stroke-opacity=".4" stroke="#4F535C"/><path d="M244.46 208.22a5.5 5.5 0 0 0-3.96 5.28v157.498a5.5 5.5 0 0 0 7.04 5.28l228-66.499a5.5 5.5 0 0 0 3.96-5.28V147.002a5.5 5.5 0 0 0-7.04-5.28l-228 66.499z" stroke-opacity=".6" stroke="#4F535C"/><path d="M364.46 278.22a5.5 5.5 0 0 0-3.96 5.28v157.498a5.5 5.5 0 0 0 7.04 5.28l228-66.499a5.5 5.5 0 0 0 3.96-5.28V217.002a5.5 5.5 0 0 0-7.04-5.28l-228 66.499z" stroke-opacity=".8" stroke="#E04E39"/><path d="M484.46 348.22a5.5 5.5 0 0 0-3.96 5.28v157.498a5.5 5.5 0 0 0 7.04 5.28l228-66.499a5.5 5.5 0 0 0 3.96-5.28V287.002a5.5 5.5 0 0 0-7.04-5.28l-228 66.499z" stroke="#4F535C"/></g></svg>