<svg width="259" height="100" xmlns="http://www.w3.org/2000/svg"><g fill="#E04E39" fill-rule="evenodd"><path d="M253.817 68.614s-6.28 4.872-11.808 4.328c-5.528-.544-3.792-12.896-3.792-12.896s1.192-11.328-2.064-12.28c-3.248-.944-7.256 2.952-7.256 2.952s-4.984 5.528-7.368 12.576l-.656.216s.76-12.36-.104-15.176c-.648-1.408-6.608-1.296-7.584 1.192-.976 2.496-5.744 19.832-6.072 27.096 0 0-9.32 7.912-17.44 9.208-8.128 1.304-10.08-3.792-10.08-3.792s22.104-6.176 21.344-23.84c-.752-17.664-17.824-11.128-19.752-9.68-1.872 1.408-11.848 7.424-14.76 24.088-.096.56-.272 3.04-.272 3.04s-8.56 5.736-13.328 7.256c0 0 13.328-22.432-2.92-32.616-4.57-2.75-8.553-.22-10.922 2.104-1.455 1.427 19.698-21.712 14.818-42.416-2.32-9.856-7.248-10.912-11.768-9.312-6.864 2.704-9.464 6.712-9.464 6.712s-8.888 12.896-10.952 32.08c-2.056 19.176-5.088 42.368-5.088 42.368s-4.232 4.12-8.128 4.336c-3.904.208-2.168-11.6-2.168-11.6s3.032-17.984 2.824-21.024c-.224-3.032-.44-4.656-4.016-5.736-3.576-1.088-7.48 3.464-7.48 3.464s-10.288 15.6-11.152 17.984l-.552.984-.536-.656s7.256-21.24.328-21.56c-6.936-.328-11.488 7.584-11.488 7.584s-7.912 13.224-8.24 14.736l-.536-.648s3.248-15.384 2.6-19.184c-.656-3.792-4.224-3.032-4.224-3.032s-4.552-.544-5.744 2.384c-1.192 2.928-5.528 22.32-6.072 28.496 0 0-11.376 8.128-18.856 8.232-7.472.112-6.712-4.736-6.712-4.736s27.416-9.384 19.936-27.912c-3.36-4.768-7.256-6.264-12.784-6.16-5.528.112-12.384 3.48-16.824 13.448-2.128 4.752-2.896 9.272-3.336 12.68 0 0-4.792.984-7.392-1.184-2.608-2.168-3.944 0-3.944 0s-4.464 5.696-.024 7.424c4.448 1.736 11.376 2.544 11.376 2.544.64 3.032 2.488 8.192 7.904 12.296 8.128 6.176 23.72-.568 23.72-.568l6.392-3.584s.216 5.864 4.88 6.72c4.656.856 6.608-.016 14.736-19.736 4.768-10.08 5.096-9.536 5.096-9.536.536-.112-3.144 19.176-1.736 24.376 1.408 5.208 7.584 4.664 7.584 4.664s3.36.648 6.072-8.888c2.704-9.536 7.912-20.048 7.912-20.048.64 0-1.632 19.72 1.832 26.008 3.472 6.288 12.464 2.112 12.464 2.112s6.288-3.168 7.264-4.144c0 0 7.456 6.352 17.976 5.2 23.52-4.632 31.888-10.888 31.888-10.888s4.04 10.24 16.56 11.192c14.296 1.08 22.104-7.912 22.104-7.912s-.112 5.848 4.872 7.912c4.992 2.056 8.344-9.52 8.344-9.52l8.344-22.992c.76 0 1.192 14.952 9.432 17.336 8.232 2.384 18.96-5.584 18.96-5.584s2.6-1.432 2.168-5.768c-.44-4.336-4.336-2.72-4.336-2.72zM36.777 57.766c2.92 2.816 1.84 8.88-3.688 12.672-5.52 3.8-8.016 3.04-8.016 3.04.328-12.896 8.784-18.536 11.704-15.712zM144.593 13.23c1.84 9.752-16.144 38.792-16.144 38.792.216-6.504 6.608-28.496 6.608-28.496s7.688-20.048 9.536-10.296zm-17.776 74.008s-1.408-4.768 2.6-18.096c4.016-13.328 13.44-8.128 13.44-8.128s6.504 4.984 1.408 18.312c-5.088 13.328-17.448 7.912-17.448 7.912zm54.832-26.112c4.44-8.128 7.912-3.688 7.912-3.688s3.792 4.12-.544 10.296c-4.336 6.176-10.616 5.744-10.616 5.744s-1.192-4.232 3.248-12.352z"/><path d="M226 94.013v-1.556h.987c.137 0 .274.015.418.03.144.02.281.057.396.107.123.05.216.123.288.216.08.094.116.224.116.382 0 .36-.108.59-.324.684-.217.094-.498.137-.836.137H226zm-1.174-2.47v5.921H226v-2.529h.735l1.44 2.529h1.233l-1.585-2.586a2.8 2.8 0 0 0 .612-.13 1.43 1.43 0 0 0 .49-.28c.144-.123.252-.282.331-.476.087-.195.123-.425.123-.7 0-.64-.202-1.094-.598-1.353-.403-.267-.98-.397-1.722-.397h-2.233zm-1.88 2.967c0-.605.1-1.16.31-1.664.208-.504.49-.936.85-1.304a3.855 3.855 0 0 1 1.26-.864 3.932 3.932 0 0 1 1.564-.31c.547 0 1.066.101 1.548.31.49.209.908.497 1.268.864.36.368.642.8.858 1.304.209.505.317 1.06.317 1.664a4.37 4.37 0 0 1-.317 1.672c-.216.504-.497.95-.858 1.318-.36.375-.778.663-1.268.872a3.863 3.863 0 0 1-1.548.31c-.555 0-1.074-.101-1.564-.31a3.768 3.768 0 0 1-1.26-.872 4.11 4.11 0 0 1-.85-1.318 4.368 4.368 0 0 1-.31-1.672zm-1.448 0c0 .814.151 1.542.446 2.19.303.656.7 1.21 1.196 1.672.505.46 1.08.814 1.736 1.059.656.245 1.34.367 2.054.367.72 0 1.404-.122 2.06-.367a5.285 5.285 0 0 0 1.736-1.06 5.237 5.237 0 0 0 1.196-1.67c.295-.649.44-1.377.44-2.19 0-.8-.145-1.528-.44-2.176a5.128 5.128 0 0 0-2.932-2.723 5.678 5.678 0 0 0-2.06-.375c-.714 0-1.398.123-2.054.375a5.128 5.128 0 0 0-2.932 2.723c-.295.648-.446 1.376-.446 2.175z"/></g></svg>