<svg width="259" height="100" xmlns="http://www.w3.org/2000/svg"><g fill="#FFF" fill-rule="evenodd"><path d="M253.97 68.576s-6.28 4.872-11.807 4.328c-5.528-.544-3.792-12.896-3.792-12.896s1.192-11.328-2.064-12.28c-3.248-.944-7.256 2.952-7.256 2.952s-4.984 5.528-7.368 12.576l-.656.216s.76-12.36-.104-15.176c-.648-1.408-6.608-1.296-7.584 1.192-.976 2.496-5.744 19.832-6.072 27.096 0 0-9.32 7.912-17.44 9.208-8.128 1.304-10.08-3.792-10.08-3.792s22.104-6.176 21.344-23.84c-.752-17.664-17.824-11.128-19.752-9.68-1.872 1.408-11.848 7.424-14.76 24.088-.096.56-.272 3.04-.272 3.04s-8.56 5.736-13.328 7.256c0 0 13.328-22.432-2.92-32.616-4.574-2.753-8.56-.216-10.929 2.11-1.451 1.425 19.705-21.718 14.825-42.422C151.635.08 146.707-.976 142.187.624c-6.864 2.704-9.464 6.712-9.464 6.712s-8.888 12.896-10.952 32.08c-2.056 19.176-5.088 42.368-5.088 42.368s-4.232 4.12-8.128 4.336c-3.904.208-2.168-11.6-2.168-11.6s3.032-17.984 2.824-21.024c-.224-3.032-.44-4.656-4.016-5.736-3.576-1.088-7.48 3.464-7.48 3.464s-10.288 15.6-11.152 17.984l-.552.984-.536-.656s7.256-21.24.328-21.56c-6.936-.328-11.488 7.584-11.488 7.584s-7.912 13.224-8.24 14.736l-.536-.648s3.248-15.384 2.6-19.184c-.656-3.792-4.224-3.032-4.224-3.032s-4.552-.544-5.744 2.384c-1.192 2.928-5.528 22.32-6.072 28.496 0 0-11.376 8.128-18.856 8.232-7.472.112-6.712-4.736-6.712-4.736s27.416-9.384 19.936-27.912c-3.36-4.768-7.256-6.264-12.784-6.16-5.528.112-12.384 3.48-16.824 13.448-2.128 4.752-2.896 9.272-3.336 12.68 0 0-4.792.984-7.392-1.184-2.608-2.168-3.944 0-3.944 0s-4.464 5.696-.024 7.424c4.448 1.736 11.376 2.544 11.376 2.544.64 3.032 2.488 8.192 7.904 12.296 8.128 6.176 23.72-.568 23.72-.568l6.392-3.584s.216 5.864 4.88 6.72c4.656.856 6.608-.016 14.736-19.736 4.768-10.08 5.096-9.536 5.096-9.536.536-.112-3.144 19.176-1.736 24.376 1.408 5.208 7.584 4.664 7.584 4.664s3.36.648 6.072-8.888c2.704-9.536 7.912-20.048 7.912-20.048.64 0-1.632 19.72 1.832 26.008 3.472 6.288 12.464 2.112 12.464 2.112s6.288-3.168 7.264-4.144c0 0 7.456 6.352 17.976 5.2 23.52-4.632 31.888-10.888 31.888-10.888s4.04 10.24 16.56 11.192c14.296 1.08 22.104-7.912 22.104-7.912s-.112 5.848 4.872 7.912c4.992 2.056 8.344-9.52 8.344-9.52l8.344-22.992c.76 0 1.192 14.952 9.432 17.336 8.232 2.384 18.96-5.584 18.96-5.584s2.6-1.432 2.168-5.768c-.44-4.336-4.336-2.72-4.336-2.72zM36.93 57.728c2.92 2.816 1.84 8.88-3.687 12.672-5.52 3.8-8.016 3.04-8.016 3.04.328-12.896 8.784-18.536 11.704-15.712zm107.817-44.536c1.84 9.752-16.144 38.792-16.144 38.792.216-6.504 6.608-28.496 6.608-28.496s7.688-20.048 9.536-10.296zM126.97 87.2s-1.408-4.768 2.6-18.096c4.016-13.328 13.44-8.128 13.44-8.128s6.504 4.984 1.408 18.312C139.33 92.616 126.97 87.2 126.97 87.2zm54.832-26.112c4.44-8.128 7.912-3.688 7.912-3.688s3.792 4.12-.544 10.296c-4.336 6.176-10.616 5.744-10.616 5.744s-1.192-4.232 3.248-12.352z"/><path d="M226.028 93.977v-1.555h.986c.137 0 .274.015.418.03.144.02.28.057.396.107.122.05.216.122.288.216.079.094.115.223.115.382 0 .36-.108.59-.324.684-.216.093-.497.136-.835.136h-1.044zm-1.174-2.47v5.92h1.174v-2.528h.734l1.44 2.527h1.231l-1.584-2.585a2.8 2.8 0 0 0 .612-.13c.187-.064.353-.158.49-.28.144-.122.252-.28.331-.475.086-.195.122-.425.122-.699 0-.64-.201-1.094-.597-1.353-.403-.267-.98-.396-1.72-.396h-2.233zm-1.88 2.967c0-.605.102-1.159.31-1.663.21-.504.49-.936.85-1.303a3.853 3.853 0 0 1 1.26-.864 3.93 3.93 0 0 1 1.562-.31c.548 0 1.066.101 1.548.31.49.209.908.497 1.268.864s.64.8.856 1.303c.21.504.317 1.058.317 1.663s-.108 1.16-.317 1.67c-.216.505-.496.951-.856 1.318-.36.375-.778.663-1.268.871-.482.21-1 .31-1.548.31a3.93 3.93 0 0 1-1.562-.31 3.765 3.765 0 0 1-1.26-.87 4.109 4.109 0 0 1-.85-1.318 4.366 4.366 0 0 1-.31-1.67zm-1.446 0c0 .814.15 1.541.446 2.19.302.654.698 1.209 1.195 1.67.504.46 1.08.813 1.735 1.058.656.245 1.34.367 2.052.367.72 0 1.404-.122 2.06-.367a5.282 5.282 0 0 0 1.735-1.059 5.234 5.234 0 0 0 1.195-1.67c.295-.648.44-1.375.44-2.189 0-.799-.145-1.526-.44-2.174a5.125 5.125 0 0 0-2.93-2.722 5.675 5.675 0 0 0-2.06-.374c-.712 0-1.396.122-2.052.374a5.125 5.125 0 0 0-2.93 2.722c-.295.648-.446 1.375-.446 2.174z"/></g></svg>