<?xml version="1.0" encoding="UTF-8"?>
<svg width="16px" height="13px" viewBox="0 0 16 13" version="1.1" xmlns="http://www.w3.org/2000/svg" xmlns:xlink="http://www.w3.org/1999/xlink">
    <title>F54016F1-E960-4060-978C-4E8A2A944716@1.00x</title>
    <g id="blog" stroke="none" stroke-width="1" fill="none" fill-rule="evenodd">
        <g id="blog-post-quotes-@wide" transform="translate(-129.000000, -522.000000)" fill="#6A707A" fill-rule="nonzero">
            <path d="M140.816,534.184 C142.652,534.184 143.912,532.672 143.912,530.908 C143.912,529.36 142.94,528.316 141.644,528.316 C140.96,528.316 140.528,528.568 140.204,528.964 L139.952,528.82 C140.312,526.876 141.896,525.4 144.848,524.176 L144.056,522.448 C139.592,523.852 137.252,526.516 137.252,530.008 C137.252,532.6 138.656,534.184 140.816,534.184 Z M132.68,534.184 C134.516,534.184 135.776,532.672 135.776,530.908 C135.776,529.36 134.804,528.316 133.508,528.316 C132.824,528.316 132.356,528.568 132.068,528.964 L131.816,528.82 C132.176,526.876 133.724,525.4 136.712,524.176 L135.884,522.448 C131.42,523.852 129.116,526.516 129.116,530.008 C129.116,532.6 130.52,534.184 132.68,534.184 Z" id="“"></path>
        </g>
    </g>
</svg>
