<?xml version="1.0" encoding="UTF-8" standalone="no"?>
<svg
   xmlns:dc="http://purl.org/dc/elements/1.1/"
   xmlns:cc="http://creativecommons.org/ns#"
   xmlns:rdf="http://www.w3.org/1999/02/22-rdf-syntax-ns#"
   xmlns:svg="http://www.w3.org/2000/svg"
   xmlns="http://www.w3.org/2000/svg"
   version="1.1"
   id="svg4169"
   viewBox="0 0 1500 1000">
  <defs
     id="defs4171" />
  <metadata
     id="metadata4174">
    <rdf:RDF>
      <cc:Work
         rdf:about="">
        <dc:format>image/svg+xml</dc:format>
        <dc:type
           rdf:resource="http://purl.org/dc/dcmitype/StillImage" />
        <dc:title></dc:title>
      </cc:Work>
    </rdf:RDF>
  </metadata>
  <g
     id="layer1">
    <path
       id="path4717"
       d="m 909,508.99057 q 0,117 -49,207 -49,90 -138,142 -89,52 -206,51 -83,0 -159,-32 -76,-32 -131,-87 -55,-55 -87,-131 -32,-76 -32,-159 0,-83 32,-159 32,-76 87,-131 55,-55 131,-87 76,-32.000003 159,-32.000003 160,0 274,107.000003 l -111,107 q -65,-63 -163,-63 -69,0 -127,34 -58,34 -92,94 -34,60 -34,130 0,70 34,130 34,60 92,94 58,34 127,34 46,0 85,-13 39,-13 64,-32 25,-19 44,-43 19,-24 27,-47 8,-23 12,-41 l -232,0 0,-141 386,0 q 7,36 7,68 z m 484,-68 0,118 -117,0 0,116 -117,0 0,-116 -117,0 0,-118 117,0 0,-116 117,0 0,116 117,0 z" />
  </g>
</svg>
