<svg width="142" height="42" viewBox="0 0 142 42" fill="none" xmlns="http://www.w3.org/2000/svg">
<path d="M20.9714 2.79645C9.38911 2.79645 1.15002e-07 2.17034 1.15002e-07 1.39816C1.15002e-07 0.625984 9.38911 4.16326e-07 20.9714 4.16326e-07C32.5536 4.16326e-07 41.9428 0.625984 41.9428 1.39816C41.9428 2.17034 32.5536 2.79645 20.9714 2.79645Z" transform="translate(2.06818 39.2036)" fill="#390156" fill-opacity="0.2"/>
<path d="M51.6147 9.25742C51.3857 8.52394 50.7055 8.03104 49.922 8.03104C49.6887 8.03104 49.4604 8.0759 49.2433 8.16438C48.6875 8.39085 47.8206 8.65589 46.7369 8.70517C44.5468 7.14594 39.2359 3.37933 36.085 1.26608C36.085 1.26608 36.5264 2.52208 37.136 4.86861C37.136 4.86861 32.1536 2.11539 28.8366 -6.29924e-09C28.8366 -6.29924e-09 30.076 2.47659 30.1786 3.2785C30.1786 3.2785 26.2337 2.61219 20.4653 1.38946C20.4653 1.38946 24.756 3.737 25.8127 5.15041C25.8127 5.15041 20.6512 4.80824 14.5721 4.46809C14.5721 4.46809 17.6534 5.99517 19.1566 7.22849C19.1566 7.22849 13.646 8.02209 9.44809 8.22298C9.44809 8.22298 12.5616 10.6073 13.8181 11.762C13.8181 11.762 8.57655 13.7897 2.31689 17.3506C2.31689 17.3506 5.61541 17.5106 7.9936 18.2535C7.9936 18.2535 5.12517 20.7343 -1.39458e-09 26.4228C-1.39458e-09 26.4228 3.29119 26.304 5.94662 25.9523C5.94662 25.9523 3.86719 29.1058 1.28155 34.7706C1.28155 34.7706 3.05514 33.6712 4.77272 33.273C4.77272 33.273 4.957 39.6318 8.52942 40.6505L8.53238 40.6461C8.70739 40.7 8.87441 40.719 9.0194 40.719C9.19389 40.719 9.37623 40.6928 9.56154 40.641C10.6953 40.3253 11.5533 39.2364 12.5468 37.9758C12.9131 37.511 13.2908 37.0322 13.6972 36.5697C13.8102 36.9151 13.9567 37.3274 14.1325 37.7435C14.7841 39.2864 15.4821 40.0364 16.2665 40.0364C16.3263 40.0364 16.3868 40.0317 16.4461 40.0226C17.4474 39.8687 18.3755 37.9793 19.1514 36.1514C19.547 35.2198 19.8949 34.2894 20.1316 33.6303C20.1596 33.6321 20.1871 33.633 20.2151 33.6351C22.6249 33.8192 24.1108 36.1522 25.3048 38.0267C26.2047 39.4396 26.9155 40.5556 27.9077 40.6625C27.9774 40.67 28.0469 40.6738 28.1145 40.6738C29.6311 40.6738 30.1641 38.9504 30.839 36.7686C30.8838 36.6234 30.9298 36.4748 30.9769 36.3236C31.1139 36.5868 31.263 36.8621 31.4219 37.1387C32.5309 39.069 33.5127 40.0142 34.4234 40.0285L34.4492 40.0288C35.2045 40.0288 35.7026 39.5346 35.9299 38.5603C36.0998 37.8325 36.136 36.8325 36.1779 35.6744C36.2746 33.0032 36.4078 29.3559 38.2736 26.2214C39.6531 25.3756 41.175 24.6052 42.6686 23.8493C46.1458 22.0894 49.4302 20.4272 51.0778 17.9052C51.9018 16.644 52.3103 15.0963 52.2917 13.3051C52.2752 11.6985 51.9145 10.2171 51.6147 9.25742Z" transform="translate(0.221924 0.18277)" fill="#2B023F"/>
<path d="M5.45908 6.81247C2.9605 6.81247 1.31568 7.94975 4.03112e-07 9.33392C0.347559 10.4624 1.2209 12.8886 2.26873 12.7275C3.2899 12.5705 4.8026 8.72634 5.49553 6.8131C5.48355 6.81297 5.47106 6.81247 5.45908 6.81247ZM21.2565 1.60044C18.929 3.82862 17.8377 6.56672 17.1013 8.82918C17.8663 10.3776 19.2046 12.7096 20.3342 12.7275C22.6079 12.7633 20.3924 5.83222 23.2796 9.19409e-07C22.5369 0.50109 21.8517 1.03079 21.2565 1.60044Z" transform="translate(14.3193 26.9798)" fill="#9E66BF"/>
<path d="M36.6372 2.57107C35.439 2.26129 34.2877 2.6768 34.0656 3.49927C33.8436 4.32185 34.6349 5.23972 35.833 5.5495C37.0312 5.8594 38.1825 5.44376 38.4046 4.6213C38.6266 3.79884 37.8353 2.88084 36.6372 2.57107ZM43.998 7.52625C43.8216 8.07675 43.5769 8.61237 43.247 9.11736C40.3926 13.4868 31.8983 15.4032 27.5969 19.5209C22.3197 24.5729 23.2535 31.9347 20.5673 31.6452C18.6768 31.4414 17.2586 24.9523 12.8583 24.6161C6.21568 24.1087 4.75745 30.8785 2.02373 31.64C-0.709998 32.4016 -0.313635 25.5367 1.09836 22.4973C2.34515 19.8131 4.58181 16.0503 8.00048 16.9137C10.2626 17.485 7.63553 21.1987 7.63553 21.1987C7.63553 21.1987 12.4197 21.5022 15.3704 17.1994C17.3301 14.3417 23.8225 4.56622 30.33 13.0221C30.33 13.0221 27.7806 5.92519 29.4344 2.47302C30.7915 -0.359727 33.9148 -0.303265 36.7572 0.417239C39.0876 1.00793 40.9342 0.565827 42.0444 0.11351C42.2612 0.0251644 42.4876 0.00147176 42.7028 0.0318446C42.2929 0.051001 41.6627 0.264115 41.2981 1.29415C40.7538 2.83195 43.7142 1.64992 44.3475 4.06034C44.3475 4.06034 44.5423 7.71908 41.4476 7.26966L41.5684 6.47618C41.5684 6.47618 40.5721 7.10343 41.2842 8.34304L41.3983 7.59381C42.0217 7.81284 42.903 7.91946 43.998 7.52625ZM44.3476 4.06034H44.3475V4.06022L44.3476 4.06034Z" transform="translate(7.61865 8.69904)" fill="#D6B5E5"/>
<path d="M21.3153 1.34548C18.9679 3.59269 17.878 6.35839 17.1415 8.63194C17.5536 9.45516 18.412 10.7732 18.412 10.7732C18.3671 6.21069 22.269 0.914967 22.9706 6.5798e-07C22.3693 0.425347 21.8107 0.871235 21.3153 1.34548ZM3.67342e-08 9.1411C0.229088 9.79871 0.690224 10.7732 0.690224 10.7732C0.690224 10.7732 2.08651 7.19698 5.47943 6.55814C2.96552 6.57024 1.31864 7.73626 3.67342e-08 9.1411Z" transform="translate(14.2605 27.2348)" fill="#5C007B"/>
<path d="M4.30028e-07 9.7449C2.73373 8.98331 4.19195 2.21357 10.8346 2.72096C15.2349 3.0572 16.6531 9.54628 18.5436 9.75007C18.5436 9.75007 17.5246 7.71307 16.7037 5.14196C15.8828 2.57098 13.0853 4.56737e-07 10.5436 4.56737e-07C8.00171 4.56737e-07 5.12157 1.33918 3.51396 4.69519C1.09238 9.75007 4.30028e-07 9.7449 4.30028e-07 9.7449Z" transform="translate(9.6424 30.5942)" fill="#C393DB"/>
<path d="M19.3784 7.41123C17.5036 7.65636 12.3633 8.15051 9.40624 8.29204C9.40624 8.29204 10.0791 8.71916 10.6596 9.17273C14.6017 8.8961 19.7189 7.63859 19.3784 7.41123ZM14.0399 11.9447C12.2853 12.6757 7.35372 14.5845 2.27375 17.6107C2.27375 17.6107 2.94479 17.5531 3.57333 17.6107C9.20394 14.5294 14.2454 12.1204 14.0399 11.9447ZM26.0346 5.33315C24.1258 5.21065 18.7688 4.80194 14.5322 4.56475C14.5322 4.56475 15.6156 5.05815 16.6168 5.6215C21.7055 5.91628 26.4433 5.66359 26.0346 5.33315ZM8.21547 18.4362C6.21691 19.9398 3.33098 22.905 0 26.7424C0 26.7424 0.382585 26.5997 0.660993 26.587C5.29206 21.5131 8.36575 18.4772 8.21547 18.4362ZM46.8682 8.82199C46.8682 8.82199 40.1859 4.04564 36.1432 1.33426C36.1432 1.33426 36.4726 1.9208 36.7402 2.82241C40.5088 5.3828 46.8682 8.82199 46.8682 8.82199ZM6.16849 26.135C4.87806 27.6655 3.14953 31.0924 1.50343 34.9534C1.50343 34.9534 1.52622 34.9394 1.56704 34.9149C3.95887 29.8089 6.23404 26.1266 6.16849 26.135ZM37.3579 5.05135C35.8856 4.22674 31.4933 1.64203 28.9185 -3.55019e-10C28.9185 -3.55019e-10 29.4179 0.90123 29.7657 1.68929C32.9885 3.67512 37.4603 5.41885 37.3579 5.05135ZM23.0588 2.98284C21.8164 2.19038 20.4266 1.46458 20.4266 1.46458C24.8258 2.39694 29.0633 3.22469 30.4005 3.46125C30.552 3.84992 27.3119 3.845 23.0588 2.98284Z" fill="#9E66BF"/>
<path d="M-1.06821e-07 6.15648e-08L4.37939 2.73251L7.22064 2.50556L-1.06821e-07 6.15648e-08Z" transform="translate(29.577 5.25861)" fill="#5C007B"/>
<path d="M7.22031 2.50507L3.14969e-07 2.34524e-07L3.35338 1.58884C4.55471 2.15811 5.86626 2.47028 7.20061 2.50456L7.22031 2.50507Z" transform="translate(29.5771 5.25879)" fill="#9E66BF"/>
<path d="M5.95146e-07 -2.46259e-07L6.93562 1.72686L9.96089 0.749448L5.95146e-07 -2.46259e-07Z" transform="translate(21.9153 9.23785)" fill="#5C007B"/>
<path d="M9.96074 0.749995L5.59986e-07 1.7625e-07L6.12265 0.992726C6.97461 1.11598 7.83997 1.12405 8.69412 1.01655L9.96074 0.749995Z" transform="translate(21.9153 9.23755)" fill="#9E66BF"/>
<path d="M5.72851 4.77127e-07L4.24838 1.0924L6.25666e-07 0.93807L5.72851 4.77127e-07Z" transform="translate(30.034 11.5306)" fill="#5C007B"/>
<path d="M5.72822 3.13821e-07L7.43963e-07 0.937652L2.33105 0.867832C3.13395 0.843761 3.92694 0.685721 4.67563 0.400645L5.72822 3.13821e-07Z" transform="translate(30.0344 11.5309)" fill="#9E66BF"/>
<path d="M8.9478 -3.00129e-07L6.57559 1.54731L1.37341e-07 0.937061L8.9478 -3.00129e-07Z" transform="translate(15.5197 12.623)" fill="#5C007B"/>
<path d="M8.94729 2.20574e-07L-2.75745e-07 0.937652L4.9946 0.859262C6.1645 0.840862 7.32153 0.618926 8.41185 0.203788L8.94729 2.20574e-07Z" transform="translate(15.52 12.6226)" fill="#9E66BF"/>
<path d="M8.94679 1.00043e-07L6.54058 1.31027L6.71446e-07 0.937062L8.94679 1.00043e-07Z" transform="translate(25.3356 15.179)" fill="#5C007B"/>
<path d="M8.94729 2.10158e-07L6.06182e-07 0.937779L5.07856 0.858002C6.19296 0.840484 7.29513 0.629008 8.33382 0.233657L8.94729 2.10158e-07Z" transform="translate(25.3352 15.1785)" fill="#9E66BF"/>
<path d="M10.0719 2.77042e-07L8.39474 2.68308L2.74683e-07 4.68228L10.0719 2.77042e-07Z" transform="translate(15.1758 17.9438)" fill="#5C007B"/>
<path d="M-2.20955e-07 4.68208L10.0721 7.49835e-07L8.77679 1.00268C8.00905 1.59691 7.15116 2.07002 6.23404 2.405L-2.20955e-07 4.68208Z" transform="translate(15.1755 17.9439)" fill="#9E66BF"/>
<path d="M3.12833e-07 5.56992L6.49958 2.78496L7.97771 -8.31125e-07L3.12833e-07 5.56992Z" transform="translate(8.26013 16.811)" fill="#5C007B"/>
<path d="M4.40547e-07 5.5692L7.9775 -7.76923e-07L7.95535 0.032642C7.13056 1.25348 6.01989 2.26398 4.71555 2.98007L4.40547e-07 5.5692Z" transform="translate(8.26025 16.8113)" fill="#9E66BF"/>
<path d="M3.98735 2.30868e-07L3.73133 2.78597L9.15609e-08 7.34116L3.98735 2.30868e-07Z" transform="translate(7.21704 22.9347)" fill="#5C007B"/>
<path d="M1.09038e-07 7.34091L3.98798 6.42466e-07C3.77138 1.2768 3.28179 2.49448 2.55113 3.57341L1.09038e-07 7.34091Z" transform="translate(7.21674 22.9351)" fill="#9E66BF"/>
<path d="M1.29567 0.562707C1.29013 0.867066 0.995623 1.10891 0.637891 1.10261C0.280159 1.09656 -0.00545915 0.844633 7.80438e-05 0.540274C0.00561534 0.235789 0.300119 -0.00605963 0.657851 0.000115796C1.01558 0.00641721 1.30121 0.258222 1.29567 0.562707Z" transform="translate(42.6675 11.6351)" fill="white"/>
<path fill-rule="evenodd" clip-rule="evenodd" d="M73.8306 24.4911C73.7528 24.7443 73.6263 24.9221 73.4523 25.022L73.402 25.0477C73.213 25.1269 73.0112 25.1155 72.7735 25.0557C72.0061 24.861 68.4478 24.4498 69.8711 20.1767L70.7151 17.6418L70.5237 17.1492L69.5985 14.8881L63.8032 1.04499C63.6759 0.757617 63.722 0.495948 63.8361 0.31771C63.9539 0.131887 64.1619 0.0379231 64.4558 0.0324454H67.7532C67.9791 0.0324454 68.1714 0.0952288 68.3187 0.212369C68.4665 0.32993 68.5747 0.509432 68.6663 0.730649L72.9204 10.9623L75.9719 0.759302C76.0372 0.514909 76.1529 0.329509 76.309 0.20647C76.4617 0.0859591 76.6569 0.0261244 76.885 0.0261244H80.4063C80.7051 0.0261244 80.9173 0.113347 81.0422 0.275995C81.167 0.444963 81.1837 0.689355 81.0913 1.00369L76.356 16.2833L74.5294 22.2119L73.8306 24.4911ZM59.9452 10.7368H63.5456C64.102 10.7368 64.4291 11.1013 64.2327 11.6647C63.2181 15.111 60.0106 17.4972 56.1809 17.4972C51.2059 17.4972 47.5077 13.686 47.5077 8.74841C47.5077 3.81084 51.2059 -2.44538e-07 56.1809 -2.44538e-07C60.0106 -2.44538e-07 63.2181 2.38578 64.2327 5.83213C64.4291 6.3955 64.102 6.7604 63.5456 6.7604H59.9452C59.5195 6.7604 59.2248 6.56151 58.963 6.19703C58.3741 5.36863 57.3595 4.90428 56.1809 4.90428C54.0538 4.90428 52.417 6.46207 52.417 8.74841C52.417 11.0352 54.0538 12.5925 56.1809 12.5925C57.3595 12.5925 58.3741 12.1286 58.963 11.3335C59.2248 10.9357 59.4866 10.7368 59.9452 10.7368ZM42.3134 0.895825V1.7592C42.7204 1.02855 43.6493 -0.00884887 46.0735 0.0244391C46.2492 0.0265459 46.3907 0.0943857 46.4947 0.203941C46.6475 0.364481 46.7207 0.581485 46.7207 0.862115V4.91229C46.7207 5.18702 46.6641 5.39307 46.5455 5.53043C46.4323 5.66738 46.2629 5.73648 46.0427 5.73648C45.5625 5.7192 45.1047 5.77061 44.6581 5.8907C44.2174 6.01037 43.8162 6.21684 43.4658 6.49705C43.1158 6.78315 42.8344 7.16744 42.6297 7.63558C42.422 8.11088 42.3167 8.68815 42.3134 9.37498L42.2905 13.6944C42.2663 18.2055 38.8686 17.5221 38.0754 17.4757C37.8049 17.4602 37.5947 17.4016 37.4482 17.2528C37.3013 17.1041 37.2277 16.8922 37.2277 16.6178V0.895825C37.2277 0.621515 37.3013 0.409568 37.4482 0.260826C37.5951 0.112084 37.8045 0.0379227 38.0754 0.0379227H41.4656C41.7365 0.0379227 41.9463 0.112084 42.0928 0.260826C42.2401 0.409568 42.3134 0.621094 42.3134 0.895825ZM27.6247 0.00800607C28.8212 0.0134838 29.9195 0.233437 30.9205 0.668708C31.9205 1.10356 32.7854 1.71454 33.5253 2.49659C34.259 3.28413 34.83 4.20313 35.2325 5.26034C35.6349 6.31754 35.8418 7.47377 35.8472 8.72902C35.8472 8.94392 35.8418 9.15292 35.8251 9.35138C35.8143 9.5549 35.7981 9.75336 35.7818 9.95141C35.7494 10.2156 35.6512 10.4082 35.4993 10.5295C35.3469 10.6509 35.1455 10.7111 34.9008 10.7111H24.0031C24.2096 11.3609 24.498 11.8893 24.8784 12.2967C25.2592 12.6987 25.7053 12.9907 26.2051 13.1778C26.7112 13.3649 27.2493 13.453 27.8208 13.453C28.2827 13.4475 28.7284 13.3759 29.1529 13.2275C29.5716 13.0788 29.9358 12.8803 30.235 12.6271C30.3927 12.4952 30.5505 12.3903 30.7028 12.3132C30.8605 12.2365 31.0399 12.1977 31.2463 12.1977L34.3789 12.1648C34.6781 12.1703 34.8954 12.2584 35.0261 12.429C35.1509 12.5997 35.1563 12.8201 35.0315 13.0897C34.602 14.0479 34.0306 14.8515 33.3185 15.4957C32.606 16.1455 31.7794 16.6296 30.8385 16.9604C29.8979 17.2849 28.8704 17.4505 27.7554 17.4505C26.3958 17.4446 25.1722 17.2191 24.0847 16.7784C22.9918 16.3381 22.0617 15.7271 21.2897 14.9341C20.5118 14.1469 19.9192 13.2216 19.5059 12.1703C19.0926 11.1131 18.8858 9.96784 18.8804 8.72902C18.8858 7.49021 19.0981 6.34493 19.5221 5.28815C19.9462 4.23642 20.5443 3.31152 21.3221 2.52398C22.0945 1.73139 23.0189 1.11999 24.0847 0.679664C25.1505 0.239336 26.3304 0.0134838 27.6247 0.00800607ZM4.73196 1.80808C5.39993 1.24134 6.14156 0.801018 6.92564 0.499319C7.74218 0.185823 8.60576 0.0223324 9.48098 0.0223324C11.6472 0.0223324 13.7651 1.00285 15.1851 2.58761C16.6031 4.17026 17.4804 6.35631 17.4804 8.76905C17.4804 11.1818 16.6031 13.3674 15.1851 14.9501C13.7651 16.5344 11.6472 17.5154 9.48098 17.5154C7.8945 17.5154 6.22979 17.0101 5.0699 15.8842L5.07322 21.2495C5.07614 25.7606 1.6514 25.0768 0.858162 25.0308C0.588478 25.0152 0.377473 24.9558 0.230978 24.8075C0.0844829 24.6592 0.0108199 24.4464 0.0108199 24.1725L5.02144e-07 0.919421C5.02144e-07 0.639634 0.0753269 0.419259 0.2264 0.266725C0.377057 0.113769 0.593473 0.0375014 0.871065 0.0375014H3.84966C4.12725 0.0375014 4.34367 0.113769 4.49432 0.266725C4.6454 0.419259 4.71739 0.637527 4.72072 0.919421L4.73196 1.80808ZM13.1991 8.7227C13.1991 6.5948 11.5065 4.86973 9.41855 4.86973C7.33016 4.86973 5.63757 6.5948 5.63757 8.7227C5.63757 10.851 7.33016 12.5761 9.41855 12.5761C11.5065 12.5761 13.1991 10.851 13.1991 8.7227ZM25.292 5.05682C24.6773 5.48619 24.2424 6.1195 23.9869 6.94538H30.9746C30.8006 6.32302 30.5396 5.82202 30.1913 5.44784C29.8492 5.07873 29.4468 4.80905 28.9952 4.64388C28.5437 4.4787 28.0763 4.39611 27.5923 4.40159C26.6729 4.40707 25.9009 4.62197 25.292 5.05682Z" transform="translate(60.8499 8.8685)" fill="#5C007B"/>
</svg>
