<svg xmlns="http://www.w3.org/2000/svg" width="42" height="33" viewBox="0 0 42 33">
  <g fill="none" fill-rule="evenodd">
    <path fill="#BFB3C5" fill-rule="nonzero" d="M18.3875588,32.982009 C9.12872059,32.982009 1.62307353,32.4882018 1.62307353,31.8791928 C1.62307353,31.2701837 9.12872059,30.7764759 18.3875588,30.7764759 C27.6463971,30.7764759 35.1521471,31.2701837 35.1521471,31.8791928 C35.1521471,32.4882018 27.6463971,32.982009 18.3875588,32.982009"></path>
    <path fill="#2B023F" fill-rule="nonzero" d="M41.4482353,7.46336747 C41.2651029,6.88487349 40.7213676,6.49612952 40.0950735,6.49612952 C39.9085441,6.49612952 39.7260294,6.53151506 39.5524706,6.60129217 C39.1081765,6.77990964 38.4151765,6.98894277 37.5489265,7.02780723 C35.7981029,5.79806024 31.5526029,2.82736446 29.0337353,1.16066566 C29.0337353,1.16066566 29.3866176,2.15126205 29.8739412,4.00194578 C29.8739412,4.00194578 25.8910441,1.83050602 23.2393824,0.16211747 C23.2393824,0.16211747 24.2301912,2.11537952 24.3122353,2.74784639 C24.3122353,2.74784639 21.1586324,2.22233133 16.5473824,1.2579759 C16.5473824,1.2579759 19.9773824,3.10945482 20.8221176,4.2241988 C20.8221176,4.2241988 16.6960294,3.95433434 11.8363824,3.68606024 C11.8363824,3.68606024 14.2995588,4.89046084 15.5011912,5.86316566 C15.5011912,5.86316566 11.0960294,6.48907229 7.74025,6.64751205 C7.74025,6.64751205 10.2291618,8.52801506 11.2336618,9.43869578 C11.2336618,9.43869578 7.04354412,11.0379036 2.03957353,13.8463825 C2.03957353,13.8463825 4.67641176,13.9726175 6.57752941,14.5584669 C6.57752941,14.5584669 4.28451471,16.5151084 0.187455882,21.0015181 C0.187455882,21.0015181 2.81842647,20.9078855 4.94117647,20.6304669 C4.94117647,20.6304669 3.27888235,23.1175934 1.21192647,27.5854157 C1.21192647,27.5854157 2.62973529,26.7182711 4.00276471,26.4042741 C4.00276471,26.4042741 4.15007353,31.4193795 7.00586765,32.2228102 L7.00823529,32.2193313 C7.14813235,32.2618735 7.28164706,32.2768825 7.39755882,32.2768825 C7.53704412,32.2768825 7.68280882,32.2562078 7.83094118,32.2153554 C8.73723529,31.9663645 9.42313235,31.1075693 10.2173235,30.1132952 C10.5101912,29.7467169 10.8121176,29.3691054 11.137,29.0043163 C11.2272794,29.2767651 11.3444265,29.6018946 11.4849412,29.9301054 C12.0058235,31.1469307 12.5638676,31.7384458 13.1908824,31.7384458 C13.2386471,31.7384458 13.2870294,31.7347681 13.3344853,31.7276114 C14.1348529,31.606247 14.8768529,30.1160783 15.4970735,28.6744157 C15.8133088,27.9396687 16.0914559,27.2059157 16.2806618,26.6860663 C16.303,26.6874578 16.3250294,26.6881536 16.3473676,26.6898434 C18.2738088,26.8350633 19.4616471,28.675012 20.4161176,30.1534518 C21.1354706,31.2677982 21.7037059,32.1479639 22.4968676,32.232253 C22.5525588,32.2382169 22.6081471,32.2411988 22.6621912,32.2411988 C23.8745294,32.2411988 24.3006029,30.8819367 24.8401176,29.1611657 C24.8759412,29.0466596 24.9126912,28.9294699 24.9503676,28.8101928 C25.0598971,29.0178343 25.1791029,29.2349187 25.3061324,29.4530964 C26.1926618,30.9754699 26.9774853,31.7209518 27.7054853,31.7322831 L27.7260735,31.7324819 C28.3299265,31.7324819 28.7281029,31.342744 28.9097941,30.5743012 C29.0455735,30.0002801 29.0745,29.2115602 29.1080588,28.2981958 C29.1853676,26.1914639 29.2918088,23.3148976 30.7833235,20.8426807 C31.8861324,20.1756235 33.1026912,19.568006 34.2967059,18.9718193 C37.0763235,17.5838313 39.7019412,16.2728765 41.0189706,14.2838313 C41.6776912,13.2890602 42.0042206,12.0684578 41.9893971,10.6557199 C41.9762206,9.3885994 41.6878824,8.22028012 41.4482353,7.46336747"></path>
    <path fill="#9E66BF" fill-rule="nonzero" d="M15.8209265,26.6696657 C13.8235588,26.6696657 12.5086912,27.5666295 11.4569412,28.6583133 C11.7347794,29.5483193 12.4329265,31.4618223 13.2705588,31.3347922 C14.0868824,31.2109428 15.2961324,28.1791175 15.8500588,26.6701627 C15.8404853,26.6700633 15.8305,26.6696657 15.8209265,26.6696657"></path>
    <path fill="#9E66BF" fill-rule="nonzero" d="M28.4493382,22.5589789 C26.5887794,24.3163283 25.7163529,26.4758404 25.1277353,28.2602259 C25.7392059,29.4814247 26.8090735,31.3206777 27.7120735,31.3347922 C29.5297059,31.3630211 27.7586029,25.8965512 30.0666471,21.2967289 C29.4728824,21.6919337 28.9251324,22.1097018 28.4493382,22.5589789"></path>
    <path fill="#D6B5E5" fill-rule="nonzero" d="M40.2735735,7.54358133 C40.0884853,7.7097741 39.9947059,7.90300301 40.0640882,7.97496687 C40.1334706,8.04703012 40.3397647,7.97059337 40.52475,7.8044006 C40.7098382,7.63820783 40.8035147,7.44507831 40.7342353,7.37301506 C40.6648529,7.3010512 40.4585588,7.37738855 40.2735735,7.54358133 Z M35.3881912,8.90662048 C34.4303235,8.6623012 33.5100294,8.99001506 33.3324559,9.63868373 C33.1549853,10.2874518 33.7875588,11.0113645 34.7453235,11.2556837 C35.7031912,11.5001024 36.6234853,11.1722892 36.8010588,10.5236205 C36.9785294,9.87495181 36.3459559,9.15093976 35.3881912,8.90662048 Z M41.2724118,12.8147349 C41.1313824,13.2489036 40.9357941,13.6713434 40.6720588,14.0696295 C38.3902647,17.515744 31.5999559,19.0271837 28.1614118,22.2748012 C23.9427794,26.259253 24.6893088,32.0654639 22.5419559,31.8371476 C21.0306765,31.6764217 19.8969853,26.5585392 16.3793824,26.2933464 C11.0692647,25.8931717 9.90355882,31.2324127 7.71822059,31.8330723 C5.53288235,32.4337319 5.84973529,27.0194458 6.97848529,24.6222741 C7.97516176,22.5053042 9.76314706,19.5375904 12.4960294,20.2185633 C14.3043971,20.6691325 12.2042941,23.5980813 12.2042941,23.5980813 C12.2042941,23.5980813 16.0287647,23.8374307 18.3875588,20.4438976 C19.9541176,18.1900572 25.1441029,10.4801837 30.3462353,17.1492651 C30.3462353,17.1492651 28.3082059,11.551988 29.6302794,8.82928916 C30.7151765,6.59512952 33.2119118,6.63965964 35.4841324,7.20791566 C37.3470588,7.67379217 38.8232353,7.32510542 39.7106912,6.96836747 C39.8840441,6.89868976 40.0650147,6.88000301 40.2370294,6.90395783 C39.9093676,6.91906627 39.4055735,7.08714759 39.1141471,7.8995241 C38.6790147,9.11237349 41.0455294,8.18012349 41.5517941,10.0812018 C41.5517941,10.0812018 41.7075441,12.9668133 39.2336618,12.6123614 L39.3302206,11.9865542 C39.3302206,11.9865542 38.5337647,12.481256 39.1030294,13.4589307 L39.1942353,12.868012 C39.6925735,13.0407651 40.3971029,13.1248554 41.2724118,12.8147349 Z M41.5518971,10.0812024 L41.5517941,10.0812024 L41.5517941,10.0811024 L41.5518971,10.0812024 Z"></path>
    <path fill="#5C007B" fill-rule="nonzero" d="M28.4493382,22.5589789 C26.5728235,24.3313373 25.7015294,26.5126175 25.1128088,28.30575 C25.4422206,28.9550151 26.1284265,29.9945151 26.1284265,29.9945151 C26.0925,26.3961235 29.2117206,22.2194367 29.7725441,21.4978102 C29.2919118,21.8332771 28.8453529,22.1849458 28.4493382,22.5589789"></path>
    <path fill="#5C007B" fill-rule="nonzero" d="M11.4098971,28.7073163 C11.5930294,29.2259729 11.9616618,29.9945151 11.9616618,29.9945151 C11.9616618,29.9945151 13.0778529,27.174009 15.7901471,26.6701627 C13.7805294,26.6797048 12.4640147,27.5993313 11.4098971,28.7073163"></path>
    <path fill="#C393DB" fill-rule="nonzero" d="M7.71822059,31.8330723 C9.90355882,31.2324127 11.0692647,25.8931717 16.3793824,26.2933464 C19.8969853,26.5585392 21.0306765,31.6764217 22.5419559,31.8371476 C22.5419559,31.8371476 21.7273824,30.2305843 21.0711324,28.2027741 C20.4148824,26.1750633 18.1785882,24.1473524 16.1467353,24.1473524 C14.1147794,24.1473524 11.8123971,25.2035512 10.5272794,27.8504096 C8.59147059,31.8371476 7.71822059,31.8330723 7.71822059,31.8330723"></path>
    <path fill="#9E66BF" fill-rule="nonzero" d="M15.5011912,5.86316566 C14.0024706,6.05649398 9.89326471,6.44623193 7.52942647,6.55785542 C7.52942647,6.55785542 8.06729412,6.89471386 8.53135294,7.25244578 C11.6826912,7.03426807 15.7733676,6.04247892 15.5011912,5.86316566 Z M11.2335588,9.43869578 C9.83098529,10.0152018 5.88864706,11.5206777 1.82772059,13.9074127 C1.82772059,13.9074127 2.36414706,13.861988 2.86660294,13.9074127 C7.36770588,11.477241 11.3978529,9.57725602 11.2335588,9.43869578 Z M20.8221176,4.2241988 C19.2962206,4.12758434 15.0138676,3.80523795 11.6271029,3.61817169 C11.6271029,3.61817169 12.4931471,4.00731325 13.2935147,4.45162048 C17.3614412,4.68411145 21.1488529,4.48481928 20.8221176,4.2241988 Z M6.57752941,14.5584669 C4.97988235,15.7443795 2.67286765,18.083006 0.0100882353,21.1094639 C0.0100882353,21.1094639 0.315926471,20.9969458 0.538485294,20.9869066 C4.24055882,16.9851596 6.69766176,14.5907711 6.57752941,14.5584669 Z M37.4764559,6.97582229 C37.4764559,6.97582229 32.1346324,3.20875301 28.9028971,1.07031325 C28.9028971,1.07031325 29.1662206,1.53290964 29.3801324,2.244 C32.3928088,4.26336145 37.4764559,6.97582229 37.4764559,6.97582229 Z M4.94117647,20.6304669 C3.90960294,21.8375512 2.52782353,24.5402711 1.21192647,27.5854157 C1.21192647,27.5854157 1.23014706,27.5743825 1.26277941,27.5550994 C3.17480882,23.528006 4.99357353,20.6238072 4.94117647,20.6304669 Z M29.8739412,4.00194578 C28.6970147,3.35158735 25.1857941,1.31304217 23.1274853,0.0179909639 C23.1274853,0.0179909639 23.5266912,0.728783133 23.8047353,1.35031627 C26.3810441,2.9165241 29.9557794,4.29178916 29.8739412,4.00194578 Z M18.44325,2.37053313 C17.4500735,1.74552108 16.3391324,1.17309036 16.3391324,1.17309036 C19.8558088,1.90843373 23.2432941,2.56127711 24.3122353,2.74784639 C24.4332941,3.05438855 21.8431912,3.05051205 18.44325,2.37053313 Z"></path>
    <polyline fill="#5C007B" fill-rule="nonzero" points="23.654 4.166 27.155 6.32 29.426 6.141 23.654 4.166"></polyline>
    <path fill="#9E66BF" fill-rule="nonzero" d="M29.4259412,6.14128012 L23.6540294,4.16555422 L26.3347206,5.41865964 C27.2950588,5.86763855 28.3435147,6.11384639 29.4101912,6.14088253 L29.4259412,6.14128012"></path>
    <polyline fill="#5C007B" fill-rule="nonzero" points="17.529 7.304 23.074 8.666 25.492 7.895 17.529 7.304"></polyline>
    <path fill="#9E66BF" fill-rule="nonzero" d="M25.4917353,7.8950512 L17.5291324,7.30353614 L22.4235735,8.08649096 C23.1046324,8.18370181 23.7963971,8.19006325 24.4792059,8.10527711 L25.4917353,7.8950512"></path>
    <polyline fill="#5C007B" fill-rule="nonzero" points="28.599 9.112 27.416 9.973 24.02 9.852 28.599 9.112"></polyline>
    <path fill="#9E66BF" fill-rule="nonzero" d="M28.5987059,9.11237349 L24.0195735,9.85189157 L25.8830147,9.7968253 C26.5248529,9.77784036 27.1587647,9.65319578 27.7572647,9.42835843 L28.5987059,9.11237349"></path>
    <polyline fill="#5C007B" fill-rule="nonzero" points="19.569 9.973 17.673 11.194 12.417 10.713 19.569 9.973"></polyline>
    <path fill="#9E66BF" fill-rule="nonzero" d="M19.5692206,9.97335542 L12.4167647,10.7128735 L16.4094412,10.6510482 C17.3446618,10.6365361 18.2695882,10.461497 19.1411912,10.1340813 L19.5692206,9.97335542"></path>
    <polyline fill="#5C007B" fill-rule="nonzero" points="27.416 11.989 25.492 13.023 20.263 12.729 27.416 11.989"></polyline>
    <path fill="#9E66BF" fill-rule="nonzero" d="M27.4155,11.9891386 L20.2630441,12.728756 L24.3228382,12.6658373 C25.2136912,12.6520211 26.0947647,12.4852319 26.9250882,12.1734217 L27.4155,11.9891386"></path>
    <polyline fill="#5C007B" fill-rule="nonzero" points="20.193 14.17 18.852 16.286 12.141 17.863 20.193 14.17"></polyline>
    <path fill="#9E66BF" fill-rule="nonzero" d="M12.1412941,17.8629398 L20.1929412,14.1702199 L19.1574559,14.9610271 C18.5437206,15.4296867 17.8579265,15.8028253 17.1247794,16.0670241 L12.1412941,17.8629398"></path>
    <polyline fill="#5C007B" fill-rule="nonzero" points="6.613 17.669 11.809 15.473 12.991 13.277 6.613 17.669"></polyline>
    <path fill="#9E66BF" fill-rule="nonzero" d="M6.61335294,17.6693133 L12.9905588,13.2769337 L12.9728529,13.3026777 C12.3135147,14.2655422 11.4256471,15.062512 10.3829559,15.6272892 L6.61335294,17.6693133"></path>
    <polyline fill="#5C007B" fill-rule="nonzero" points="8.967 18.107 8.762 20.304 5.779 23.896 8.967 18.107"></polyline>
    <path fill="#9E66BF" fill-rule="nonzero" d="M5.77911765,23.8963735 L8.96710294,18.1066627 C8.79395588,19.1136596 8.40257353,20.0740392 7.81848529,20.9249819 L5.77911765,23.8963735"></path>
    <path fill="#FFF" fill-rule="nonzero" d="M35.1542059,9.63828614 C35.1497794,9.87833133 34.9143529,10.0690753 34.6283824,10.0641054 C34.3424118,10.0593343 34.1140882,9.86063855 34.1185147,9.62059337 C34.1229412,9.3804488 34.3583676,9.18970482 34.6443382,9.1945753 C34.9303088,9.19954518 35.1586324,9.39814157 35.1542059,9.63828614"></path>
  </g>
</svg>
